<svg xmlns="http://www.w3.org/2000/svg" viewBox="0 0 404.3 147.5"><defs><style>.cls-1{fill:#2bac80;}.cls-2{fill:#055036;}</style></defs><title>Ophelia-Logo-Vert-Vert</title><g id="Layer_2" data-name="Layer 2"><g id="Layer_1-2" data-name="Layer 1"><polygon class="cls-1" points="8.58 46.31 2.63 31.45 23.33 23.15 2.63 14.85 8.58 0 47.8 15.73 47.8 30.58 8.58 46.31"/><path class="cls-2" d="M31.35,62.59c17.81,0,31.48,13.42,31.48,31.35s-13.67,31.23-31.48,31.23S0,111.87,0,93.94,13.54,62.59,31.35,62.59Zm0,47.33c8.42,0,14.64-6.71,14.64-16S39.77,78,31.35,78s-14.64,6.71-14.64,16S22.94,109.92,31.35,109.92Z"/><path class="cls-2" d="M107.36,125.17c-7.08,0-12.57-2.56-15.62-5.24V147.5H75.27V64.05H91.5v4.52c3.29-3.3,8.78-6,15.86-6,16.71,0,29.76,12.32,29.76,31.35C137.12,112.61,124.07,125.17,107.36,125.17Zm-1.47-14.76c8.54,0,14.4-7,14.4-16.47s-5.86-16.47-14.4-16.47S91.5,84.55,91.5,93.94,97.23,110.41,105.89,110.41Z"/><path class="cls-2" d="M149.69,123.83V38.31h16.47V67.59a22.19,22.19,0,0,1,14.15-5c14.52,0,24.28,9.51,24.28,26.47v34.77H188V90c0-6.83-3.17-12.2-10.37-12.2-8.3,0-11.47,6.1-11.47,15.25v30.74Z"/><path class="cls-2" d="M246.44,110.17a17.79,17.79,0,0,0,14.76-7.32l11,10.24c-5.25,6.59-12.81,12.08-25.38,12.08-17.93,0-31.11-12.2-31.11-30.86,0-17.94,11.71-31.72,29-31.72,19.27,0,28.42,15.49,28.42,30.62,0,2.07-.12,5-.12,5H232.41C233.26,105.16,238.38,110.17,246.44,110.17ZM233.26,86.74h22.45c-.37-5-4.15-9.51-10.74-9.51C238.14,77.23,234.36,81.74,233.26,86.74Z"/><path class="cls-2" d="M302.07,38.31v85.52H285.6V38.31Z"/><path class="cls-2" d="M335.49,38.31V54.42H318.66V38.31Zm-.12,25.74v59.78H318.78V64.05Z"/><path class="cls-2" d="M347.82,107.12c0-10.86,7.07-17.33,20.61-19l13.06-1.59V84.18c0-4.27-2.81-6.46-7.44-6.46-3.91,0-7.2,1.7-7.69,5.85H349.77c.85-12.81,10.73-21,24.52-21,13.54,0,23.79,6.71,23.79,20.13v21.84c0,3.65.73,5.36,4.27,5.36h1.95v13.79s-4,.36-6.83.36c-6,0-9.88-1.34-11.35-6-4.51,5.12-10.61,7.07-17.69,7.07C355.5,125.17,347.82,116.51,347.82,107.12Zm22.81,3.53c6.71,0,10.86-3.66,10.86-11.34v-1l-11,1.71c-4.15.61-6.47,2.32-6.47,5.49S366.73,110.65,370.63,110.65Z"/></g></g></svg>